<?xml version="1.0" encoding="UTF-8" standalone="no"?>
<!DOCTYPE svg PUBLIC "-//W3C//DTD SVG 1.1//EN" "http://www.w3.org/Graphics/SVG/1.1/DTD/svg11.dtd">
<!-- Created with Vectornator (http://vectornator.io/) -->
<svg height="100%" stroke-miterlimit="10" style="fill-rule:nonzero;clip-rule:evenodd;stroke-linecap:round;stroke-linejoin:round;" version="1.1" viewBox="0 0 500 500" width="100%" xml:space="preserve" xmlns="http://www.w3.org/2000/svg" xmlns:vectornator="http://vectornator.io" xmlns:xlink="http://www.w3.org/1999/xlink">
<defs/>
<g id="Sin-título" vectornator:layerName="Sin título">
<g opacity="1" vectornator:layerName="g">
<g opacity="1" vectornator:layerName="Background Complete">
<path d="M247.472 229.394L39.997 229.394L39.997 43.775L247.472 43.775L247.472 229.394Z" fill="#fafafa" fill-rule="nonzero" opacity="1" stroke="none" vectornator:layerName="path"/>
<g opacity="1" vectornator:layerName="path">
<clipPath clip-rule="nonzero" id="ClipPath">
<path d="M0 0L500 0L500 500L0 500L0 0Z"/>
</clipPath>
<g clip-path="url(#ClipPath)">
<path d="M247.473 229.394C247.473 229.394 247.438 228.204 247.42 225.949C247.408 223.671 247.39 220.341 247.366 216.003C247.338 207.288 247.297 194.55 247.244 178.324C247.186 145.892 247.102 99.5493 247.002 43.7753L247.473 44.2453C187.721 44.2693 116.413 44.2983 40.0158 44.3293L39.9978 44.3293L40.5518 43.7753C40.5278 111.306 40.5048 174.851 40.4858 229.394L39.9978 228.906C101.892 229.007 153.695 229.093 190.059 229.152C208.252 229.207 222.576 229.251 232.383 229.281C237.268 229.306 241.022 229.325 243.587 229.338C244.843 229.35 245.802 229.36 246.477 229.366C247.128 229.375 247.473 229.394 247.473 229.394C247.473 229.394 247.165 229.413 246.532 229.422C245.87 229.428 244.928 229.437 243.696 229.449C241.153 229.463 237.431 229.481 232.587 229.506C222.805 229.537 208.518 229.58 190.372 229.635C153.933 229.695 102.021 229.78 39.9978 229.882L39.5098 229.883L39.5098 229.394C39.4898 174.851 39.4678 111.306 39.4428 43.7753L39.4428 43.2203L39.9978 43.2203L40.0158 43.2203C116.413 43.2513 187.721 43.2803 247.473 43.3043L247.944 43.3043L247.943 43.7753C247.843 99.6733 247.76 146.119 247.701 178.622C247.649 194.802 247.608 207.505 247.579 216.195C247.556 220.494 247.538 223.794 247.525 226.051C247.508 228.273 247.473 229.394 247.473 229.394" fill="#e1e1e1" fill-rule="nonzero" opacity="1" stroke="none" vectornator:layerName="path"/>
<path d="M119.551 76.7557C119.551 77.0617 108.631 77.3107 95.1629 77.3107C81.6899 77.3107 70.7719 77.0617 70.7719 76.7557C70.7719 76.4497 81.6899 76.2017 95.1629 76.2017C108.631 76.2017 119.551 76.4497 119.551 76.7557" fill="#e1e1e1" fill-rule="nonzero" opacity="1" stroke="none" vectornator:layerName="path"/>
<path d="M207.461 90.6927C207.461 90.9997 177.46 91.2477 140.46 91.2477C103.446 91.2477 73.4511 90.9997 73.4511 90.6927C73.4511 90.3867 103.446 90.1387 140.46 90.1387C177.46 90.1387 207.461 90.3867 207.461 90.6927" fill="#e1e1e1" fill-rule="nonzero" opacity="1" stroke="none" vectornator:layerName="path"/>
<path d="M79.87 123.042L71.129 123.042L71.129 114.301L79.87 114.301L79.87 123.042Z" fill="#e1e1e1" fill-rule="nonzero" opacity="1" stroke="none" vectornator:layerName="path"/>
<path d="M101.385 123.042L92.644 123.042L92.644 114.301L101.385 114.301L101.385 123.042Z" fill="#e1e1e1" fill-rule="nonzero" opacity="1" stroke="none" vectornator:layerName="path"/>
<path d="M123.298 122.645L114.557 122.645L114.557 113.904L123.298 113.904L123.298 122.645Z" fill="#e1e1e1" fill-rule="nonzero" opacity="1" stroke="none" vectornator:layerName="path"/>
<path d="M144.418 123.042L135.677 123.042L135.677 114.301L144.418 114.301L144.418 123.042Z" fill="#e1e1e1" fill-rule="nonzero" opacity="1" stroke="none" vectornator:layerName="path"/>
<path d="M165.934 123.042L157.193 123.042L157.193 114.301L165.934 114.301L165.934 123.042Z" fill="#e1e1e1" fill-rule="nonzero" opacity="1" stroke="none" vectornator:layerName="path"/>
<path d="M187.45 123.042L178.709 123.042L178.709 114.301L187.45 114.301L187.45 123.042Z" fill="#e1e1e1" fill-rule="nonzero" opacity="1" stroke="none" vectornator:layerName="path"/>
<path d="M208.965 123.042L200.224 123.042L200.224 114.301L208.965 114.301L208.965 123.042Z" fill="#ececec" fill-rule="nonzero" opacity="1" stroke="none" vectornator:layerName="path"/>
<path d="M79.87 141.624L71.129 141.624L71.129 132.883L79.87 132.883L79.87 141.624Z" fill="#ececec" fill-rule="nonzero" opacity="1" stroke="none" vectornator:layerName="path"/>
<path d="M101.385 141.624L92.644 141.624L92.644 132.883L101.385 132.883L101.385 141.624Z" fill="#e1e1e1" fill-rule="nonzero" opacity="1" stroke="none" vectornator:layerName="path"/>
<path d="M122.902 141.624L114.161 141.624L114.161 132.883L122.902 132.883L122.902 141.624Z" fill="#ececec" fill-rule="nonzero" opacity="1" stroke="none" vectornator:layerName="path"/>
<path d="M144.418 141.624L135.677 141.624L135.677 132.883L144.418 132.883L144.418 141.624Z" fill="#e1e1e1" fill-rule="nonzero" opacity="1" stroke="none" vectornator:layerName="path"/>
<path d="M165.934 141.624L157.193 141.624L157.193 132.883L165.934 132.883L165.934 141.624Z" fill="#e1e1e1" fill-rule="nonzero" opacity="1" stroke="none" vectornator:layerName="path"/>
<path d="M187.846 141.228L179.105 141.228L179.105 132.487L187.846 132.487L187.846 141.228Z" fill="#e1e1e1" fill-rule="nonzero" opacity="1" stroke="none" vectornator:layerName="path"/>
<path d="M208.965 141.624L200.224 141.624L200.224 132.883L208.965 132.883L208.965 141.624Z" fill="#e1e1e1" fill-rule="nonzero" opacity="1" stroke="none" vectornator:layerName="path"/>
<path d="M79.87 160.207L71.129 160.207L71.129 151.466L79.87 151.466L79.87 160.207Z" fill="#e1e1e1" fill-rule="nonzero" opacity="1" stroke="none" vectornator:layerName="path"/>
<path d="M101.782 159.81L93.041 159.81L93.041 151.069L101.782 151.069L101.782 159.81Z" fill="#e1e1e1" fill-rule="nonzero" opacity="1" stroke="none" vectornator:layerName="path"/>
<path d="M122.902 160.207L114.161 160.207L114.161 151.466L122.902 151.466L122.902 160.207Z" fill="#e1e1e1" fill-rule="nonzero" opacity="1" stroke="none" vectornator:layerName="path"/>
<path d="M144.418 160.207L135.677 160.207L135.677 151.466L144.418 151.466L144.418 160.207Z" fill="#ececec" fill-rule="nonzero" opacity="1" stroke="none" vectornator:layerName="path"/>
<path d="M165.934 160.207L157.193 160.207L157.193 151.466L165.934 151.466L165.934 160.207Z" fill="#e1e1e1" fill-rule="nonzero" opacity="1" stroke="none" vectornator:layerName="path"/>
<path d="M187.45 160.207L178.709 160.207L178.709 151.466L187.45 151.466L187.45 160.207Z" fill="#e1e1e1" fill-rule="nonzero" opacity="1" stroke="none" vectornator:layerName="path"/>
<path d="M208.965 160.207L200.224 160.207L200.224 151.466L208.965 151.466L208.965 160.207Z" fill="#e1e1e1" fill-rule="nonzero" opacity="1" stroke="none" vectornator:layerName="path"/>
<path d="M79.87 178.79L71.129 178.79L71.129 170.049L79.87 170.049L79.87 178.79Z" fill="#e1e1e1" fill-rule="nonzero" opacity="1" stroke="none" vectornator:layerName="path"/>
<path d="M101.385 178.79L92.644 178.79L92.644 170.049L101.385 170.049L101.385 178.79Z" fill="#e1e1e1" fill-rule="nonzero" opacity="1" stroke="none" vectornator:layerName="path"/>
<path d="M122.902 178.79L114.161 178.79L114.161 170.049L122.902 170.049L122.902 178.79Z" fill="#e1e1e1" fill-rule="nonzero" opacity="1" stroke="none" vectornator:layerName="path"/>
<path d="M144.815 178.393L136.074 178.393L136.074 169.652L144.815 169.652L144.815 178.393Z" fill="#e1e1e1" fill-rule="nonzero" opacity="1" stroke="none" vectornator:layerName="path"/>
<path d="M165.934 178.79L157.193 178.79L157.193 170.049L165.934 170.049L165.934 178.79Z" fill="#e1e1e1" fill-rule="nonzero" opacity="1" stroke="none" vectornator:layerName="path"/>
<path d="M187.45 178.79L178.709 178.79L178.709 170.049L187.45 170.049L187.45 178.79Z" fill="#ececec" fill-rule="nonzero" opacity="1" stroke="none" vectornator:layerName="path"/>
<path d="M208.965 178.79L200.224 178.79L200.224 170.049L208.965 170.049L208.965 178.79Z" fill="#e1e1e1" fill-rule="nonzero" opacity="1" stroke="none" vectornator:layerName="path"/>
<path d="M79.87 197.372L71.129 197.372L71.129 188.631L79.87 188.631L79.87 197.372Z" fill="#e1e1e1" fill-rule="nonzero" opacity="1" stroke="none" vectornator:layerName="path"/>
<path d="M101.385 197.372L92.644 197.372L92.644 188.631L101.385 188.631L101.385 197.372Z" fill="#ececec" fill-rule="nonzero" opacity="1" stroke="none" vectornator:layerName="path"/>
<path d="M122.902 197.372L114.161 197.372L114.161 188.631L122.902 188.631L122.902 197.372Z" fill="#e1e1e1" fill-rule="nonzero" opacity="1" stroke="none" vectornator:layerName="path"/>
<path d="M144.418 197.372L135.677 197.372L135.677 188.631L144.418 188.631L144.418 197.372Z" fill="#e1e1e1" fill-rule="nonzero" opacity="1" stroke="none" vectornator:layerName="path"/>
<path d="M165.934 197.372L157.193 197.372L157.193 188.631L165.934 188.631L165.934 197.372Z" fill="#e1e1e1" fill-rule="nonzero" opacity="1" stroke="none" vectornator:layerName="path"/>
<path d="M187.846 196.975L179.105 196.975L179.105 188.234L187.846 188.234L187.846 196.975Z" fill="#e1e1e1" fill-rule="nonzero" opacity="1" stroke="none" vectornator:layerName="path"/>
<path d="M208.965 197.372L200.224 197.372L200.224 188.631L208.965 188.631L208.965 197.372Z" fill="#e1e1e1" fill-rule="nonzero" opacity="1" stroke="none" vectornator:layerName="path"/>
<path d="M430.182 293.28C439.426 288.51 450.312 287.89 460.576 289.587C466.089 290.499 471.838 292.148 475.59 296.29C479.342 300.431 480.053 307.72 475.745 311.279C473.18 313.398 469.604 313.719 466.278 313.681C458.244 313.588 449.328 312.173 442.91 317.007C439.247 319.765 436.81 324.35 432.431 325.707C428.148 327.034 423.314 324.506 421.042 320.639C418.771 316.773 418.695 311.94 419.754 307.584C419.754 307.584 420.869 298.086 430.182 293.28" fill="#ececec" fill-rule="nonzero" opacity="1" stroke="none" vectornator:layerName="path"/>
<path d="M409.002 252.393C414.655 260.466 425.642 257.793 430.736 252.866C435.83 247.937 437.983 240.794 439.943 233.983C444.422 218.42 448.937 202.095 445.607 186.247C444.611 181.508 442.84 176.783 439.511 173.268C436.181 169.753 431.062 167.662 426.38 168.898C420.841 170.362 417.398 175.788 414.909 180.95C407.595 196.121 403.722 212.941 403.664 229.784C403.637 237.649 404.565 245.899 409.002 252.393" fill="#ececec" fill-rule="nonzero" opacity="1" stroke="none" vectornator:layerName="path"/>
<path d="M393.477 263.978C399.616 256.693 400.78 246.068 398.049 236.943C395.318 227.816 389.147 220.054 382.037 213.715C373.699 206.284 363.898 200.502 353.363 196.797C349.216 195.339 344.843 194.189 340.467 194.606C336.092 195.024 331.686 197.261 329.645 201.154C326.628 206.909 329.521 213.89 332.65 219.585C338.164 229.619 344.467 239.217 351.484 248.264C357.128 255.541 363.594 262.72 372.198 266.009C380.8 269.297 389.737 268.911 394.296 262.945" fill="#ececec" fill-rule="nonzero" opacity="1" stroke="none" vectornator:layerName="path"/>
<path d="M408.619 374.186C408.724 374.192 408.896 372.884 409.13 370.517C409.39 367.847 409.717 364.495 410.104 360.505C410.571 356.292 411.186 351.279 412.357 345.819C413.523 340.373 415.349 334.471 417.695 328.486C420.124 322.536 423.085 317.127 426.546 312.802C429.982 308.457 433.978 305.313 437.736 303.499C441.48 301.65 444.839 300.899 447.16 300.565C449.501 300.325 450.811 300.14 450.812 300.036C450.813 299.931 449.5 299.915 447.095 299.979C444.713 300.137 441.216 300.741 437.268 302.536C433.309 304.291 429.07 307.485 425.465 311.919C421.831 316.335 418.762 321.863 416.29 327.918C413.904 334.009 412.105 339.972 410.99 345.536C409.879 351.09 409.371 356.159 409.038 360.408C408.72 364.659 408.599 368.102 408.542 370.482C408.488 372.862 408.515 374.18 408.619 374.186" fill="#e1e1e1" fill-rule="nonzero" opacity="1" stroke="none" vectornator:layerName="path"/>
<path d="M409.308 366.482C409.361 366.479 409.393 365.893 409.407 364.78C409.404 363.501 409.399 361.889 409.394 359.912C409.382 355.687 409.384 349.573 409.611 342.024C409.985 326.924 411.285 310.674 413.795 287.765C416.173 266.222 419.365 241.152 422.733 224.852C423.455 221.145 424.183 217.808 424.868 214.888C425.52 211.96 426.078 209.436 426.616 207.394C427.079 205.471 427.454 203.905 427.753 202.662C427.997 201.575 428.101 200.997 428.051 200.982C428.001 200.967 427.799 201.517 427.459 202.578C427.088 203.803 426.621 205.347 426.046 207.243C425.419 209.266 424.777 211.774 424.043 214.69C423.28 217.599 422.477 220.927 421.686 224.629C418.353 239.399 414.825 260.041 412.289 283.005C409.774 305.963 408.64 326.867 408.54 342.003C408.451 349.572 408.612 355.699 408.804 359.926C408.925 361.903 409.024 363.513 409.102 364.792C409.187 365.903 409.256 366.485 409.308 366.482" fill="#e1e1e1" fill-rule="nonzero" opacity="1" stroke="none" vectornator:layerName="path"/>
<path d="M409.41 326.165C409.514 326.161 409.497 324.354 409.374 321.079C409.187 317.811 408.738 313.088 407.817 307.302C406.841 301.53 405.477 294.677 403.336 287.228C402.408 283.824 400.226 275.667 394.942 263.477C387.979 246.96 378.52 233.457 370.292 225.093C368.361 222.873 366.212 221.271 364.492 219.702C363.602 218.95 362.816 218.2 362.015 217.605C361.21 217.05 360.46 216.534 359.765 216.055C357.056 214.203 355.54 213.226 355.484 213.314C355.241 213.644 361.551 217.357 369.517 225.833C377.451 234.29 386.646 247.701 393.553 264.078C397.403 272.961 400.089 280.885 401.994 287.612C404.195 294.987 405.657 301.771 406.762 307.485C407.811 313.213 408.42 317.89 408.787 321.128C409.089 324.37 409.306 326.169 409.41 326.165" fill="#e1e1e1" fill-rule="nonzero" opacity="1" stroke="none" vectornator:layerName="path"/>
<path d="M370.441 397.284L374.481 452.631L445.584 452.631L449.624 397.284L370.441 397.284Z" fill="#e1e1e1" fill-rule="nonzero" opacity="1" stroke="none" vectornator:layerName="path"/>
<path d="M363.574 397.284L458.107 397.284L458.107 375.469L363.574 375.469L363.574 397.284Z" fill="#e1e1e1" fill-rule="nonzero" opacity="1" stroke="none" vectornator:layerName="path"/>
<path d="M363.574 450.513L363.574 456.56L368.015 456.56L456.545 456.56L456.545 450.513L363.574 450.513Z" fill="#ececec" fill-rule="nonzero" opacity="1" stroke="none" vectornator:layerName="path"/>
<path d="M372.369 467.203L368.015 456.56L453.159 456.56L448.079 467.203L372.369 467.203Z" fill="#e1e1e1" fill-rule="nonzero" opacity="1" stroke="none" vectornator:layerName="path"/>
<path d="M448.303 415.372C448.319 415.386 448.205 415.558 447.971 415.881C447.689 416.255 447.339 416.719 446.908 417.29C445.899 418.582 444.512 420.357 442.767 422.591L442.582 422.826L442.405 422.58C439.801 418.979 436.323 414.169 432.228 408.506L432.814 408.506C429.786 412.792 426.415 417.566 422.795 422.691L422.481 423.137L422.129 422.719C418.432 418.319 414.416 413.542 410.247 408.581L410.932 408.572C410.726 408.832 410.503 409.113 410.279 409.394C406.594 414.014 403.028 418.485 399.655 422.714L399.3 423.157L398.973 422.695C395.366 417.592 391.996 412.823 388.949 408.513L389.532 408.54C384.593 414.169 380.404 418.941 377.188 422.605L376.969 422.855L376.801 422.574C375.174 419.84 373.876 417.66 372.936 416.08C372.532 415.375 372.205 414.806 371.945 414.351C371.726 413.955 371.622 413.746 371.642 413.734C371.66 413.723 371.801 413.909 372.055 414.282C372.344 414.72 372.705 415.268 373.153 415.946C374.14 417.498 375.502 419.638 377.21 422.322L376.824 422.291C379.989 418.583 384.111 413.751 388.971 408.055L389.278 407.695L389.555 408.082C392.629 412.374 396.029 417.12 399.668 422.2L398.988 422.183C402.352 417.947 405.91 413.47 409.586 408.843C409.81 408.561 410.033 408.281 410.24 408.021L410.578 407.598L410.925 408.013C415.083 412.982 419.087 417.769 422.775 422.178L422.109 422.204C425.765 417.103 429.17 412.353 432.228 408.089L432.525 407.675L432.814 408.089C436.822 413.813 440.226 418.676 442.775 422.315L442.413 422.305C444.229 420.129 445.671 418.398 446.722 417.14C447.19 416.598 447.57 416.158 447.876 415.804C448.142 415.507 448.286 415.359 448.303 415.372" fill="#f5f5f5" fill-rule="nonzero" opacity="1" stroke="none" vectornator:layerName="path"/>
<path d="M450.613 396.919C450.613 397.163 432.797 397.361 410.825 397.361C388.845 397.361 371.033 397.163 371.033 396.919C371.033 396.674 388.845 396.477 410.825 396.477C432.797 396.477 450.613 396.674 450.613 396.919" fill="#f5f5f5" fill-rule="nonzero" opacity="1" stroke="none" vectornator:layerName="path"/>
<path d="M454.205 457.157C454.205 457.401 434.843 457.599 410.964 457.599C387.075 457.599 367.718 457.401 367.718 457.157C367.718 456.913 387.075 456.715 410.964 456.715C434.843 456.715 454.205 456.913 454.205 457.157" fill="#f5f5f5" fill-rule="nonzero" opacity="1" stroke="none" vectornator:layerName="path"/>
</g>
</g>
<g opacity="1" vectornator:layerName="path">
<clipPath clip-rule="nonzero" id="ClipPath_2">
<path d="M0 0L500 0L500 500L0 500L0 0Z"/>
</clipPath>
<g clip-path="url(#ClipPath_2)">
<path d="M197.763 247.139L189.766 251.431L172.062 265.06C172.062 265.06 117.832 272.262 115.749 273.824C113.666 275.386 86.6968 288.192 83.0518 305.376C79.4068 322.559 71.9068 434.678 71.9068 434.678L81.7478 467.805L279.257 468.112L325.576 467.454C325.576 467.454 343.375 425.886 343.375 414.43C343.375 402.974 338.168 317.057 338.168 317.057L282.623 277.89L197.763 247.139Z" fill="#01739a" fill-rule="nonzero" opacity="1" stroke="none" vectornator:layerName="path"/>
<path d="M171.55 264.25C171.564 264.261 171.469 264.42 171.275 264.714C171.043 265.052 170.756 265.47 170.406 265.98C169.626 267.061 168.572 268.677 167.337 270.71C166.741 271.74 166.057 272.849 165.43 274.101C164.756 275.326 164.119 276.679 163.458 278.104C162.174 280.974 160.931 284.204 159.868 287.675C157.774 294.634 156.698 301.148 155.975 305.856C155.645 308.16 155.373 310.052 155.173 311.447C155.081 312.059 155.007 312.562 154.946 312.967C154.888 313.313 154.849 313.495 154.832 313.493C154.814 313.491 154.818 313.306 154.842 312.955C154.876 312.546 154.919 312.04 154.971 311.423C155.091 310.094 155.305 308.173 155.611 305.805C156.241 301.076 157.263 294.526 159.37 287.523C160.439 284.031 161.704 280.782 163.022 277.905C163.699 276.475 164.355 275.121 165.05 273.896C165.697 272.646 166.404 271.541 167.023 270.518C168.305 268.499 169.41 266.907 170.242 265.861C170.624 265.373 170.938 264.974 171.192 264.65C171.413 264.377 171.536 264.239 171.55 264.25" fill="#182e35" fill-rule="nonzero" opacity="1" stroke="none" vectornator:layerName="path"/>
<g opacity="0.300003" vectornator:layerName="path">
<clipPath clip-rule="nonzero" id="ClipPath_3">
<path d="M155.419 326.444L188.207 326.444L188.207 294.446L155.419 294.446L155.419 326.444Z"/>
</clipPath>
<g clip-path="url(#ClipPath_3)">
<path d="M172.783 297.208C172.454 296.153 172.029 294.961 171.003 294.548C170.197 294.224 170.521 294.744 169.718 295.075C162.216 298.169 158.595 305.104 155.42 312.917L155.6 312.73C155.13 313.927 155.624 315.653 156.828 316.355C158.519 317.341 160.693 316.809 162.431 315.909C164.169 315.01 165.76 313.761 167.656 313.274C171.764 312.223 175.847 315.034 178.745 318.13C181.644 321.225 184.254 324.91 188.207 326.443C181.342 317.747 176.086 307.784 172.783 297.208" fill="#000000" fill-rule="nonzero" opacity="1" stroke="none" vectornator:layerName="path"/>
</g>
</g>
<path d="M154.832 313.493C154.832 313.493 155.724 311.107 158.006 307.133C159.16 305.157 160.672 302.783 162.769 300.287C163.84 299.06 165.046 297.792 166.505 296.641C167.973 295.523 169.719 294.487 171.785 294.107L171.939 294.079L171.997 294.228C173.254 297.502 174.573 301.073 176.095 304.833C177.623 308.588 179.378 312.536 181.686 316.412C183.979 320.292 186.836 324.084 190.286 327.528C193.727 330.982 197.728 334.083 202.064 336.867C203.509 337.724 204.913 338.629 206.359 339.429C207.818 340.206 209.264 340.976 210.693 341.738L210.434 341.755C212.886 340.061 215.295 338.399 217.653 336.771C218.832 335.958 219.999 335.154 221.151 334.359C222.311 333.571 223.441 332.78 224.51 331.939C228.801 328.592 232.513 324.961 235.714 321.408L235.73 321.389L235.747 321.377C240.197 317.958 243.647 314.043 246.02 310.166C248.444 306.309 249.833 302.548 250.651 299.398C251.462 296.238 251.719 293.676 251.829 291.935C251.89 291.064 251.873 290.393 251.897 289.943C251.912 289.492 251.936 289.259 251.936 289.259C251.936 289.259 251.957 289.491 251.965 289.943C251.963 290.394 252.002 291.066 251.962 291.941C251.896 293.69 251.679 296.269 250.898 299.461C250.112 302.64 248.745 306.447 246.325 310.354C243.957 314.283 240.494 318.256 236.014 321.727L236.047 321.696C232.835 325.292 229.128 328.94 224.811 332.326C223.733 333.178 222.597 333.976 221.441 334.764C220.289 335.562 219.123 336.37 217.943 337.186C215.585 338.818 213.175 340.486 210.722 342.183L210.596 342.271L210.462 342.2C209.025 341.435 207.572 340.663 206.105 339.883C204.651 339.079 203.238 338.169 201.785 337.306C197.422 334.505 193.39 331.378 189.923 327.889C186.447 324.41 183.569 320.574 181.268 316.659C178.953 312.746 177.202 308.77 175.685 304.999C174.174 301.222 172.874 297.643 171.637 294.366L171.849 294.487C169.874 294.838 168.165 295.829 166.717 296.917C165.277 298.036 164.073 299.281 163.002 300.487C160.901 302.943 159.368 305.29 158.191 307.242C157.02 309.201 156.203 310.778 155.661 311.852C155.403 312.374 155.202 312.781 155.054 313.081C154.915 313.357 154.841 313.497 154.832 313.493" fill="#182e35" fill-rule="nonzero" opacity="1" stroke="none" vectornator:layerName="path"/>
<path d="M266.605 288.871C266.605 288.871 266.938 294.707 265.883 304.123C265.356 308.825 264.406 314.403 262.833 320.49C261.271 326.578 259.045 333.152 256.213 339.868L255.833 340.772L255.714 339.793C255.645 339.208 255.589 338.575 255.495 337.943C254.997 334.25 254.126 330.698 252.974 327.379C252.398 325.719 251.751 324.116 251.048 322.579C250.699 321.809 250.33 321.059 249.953 320.323C249.566 319.587 249.21 318.859 248.73 318.237C248.26 317.614 247.687 317.057 247.012 316.804C246.338 316.545 245.598 316.714 245.045 317.175C244.484 317.627 244.018 318.245 243.519 318.795C243.027 319.356 242.544 319.908 242.069 320.451C240.169 322.619 238.398 324.64 236.779 326.487C233.552 330.145 230.932 333.115 229.09 335.204C228.194 336.203 227.488 336.989 226.98 337.557C226.751 337.803 226.567 338.002 226.421 338.159C226.293 338.293 226.224 338.359 226.217 338.353C226.21 338.348 226.266 338.269 226.381 338.124C226.517 337.958 226.688 337.748 226.901 337.487C227.391 336.905 228.072 336.097 228.937 335.07C230.749 332.957 233.327 329.949 236.501 326.246C238.106 324.386 239.861 322.35 241.744 320.168C242.215 319.622 242.695 319.067 243.182 318.503C243.681 317.95 244.126 317.338 244.761 316.816C245.376 316.281 246.353 316.038 247.172 316.362C247.99 316.669 248.607 317.289 249.111 317.947C249.627 318.611 250 319.366 250.387 320.098C250.77 320.84 251.145 321.596 251.501 322.372C252.214 323.921 252.871 325.537 253.456 327.212C254.626 330.559 255.508 334.144 256.01 337.874C256.106 338.512 256.163 339.15 256.233 339.741L255.734 339.665C258.559 332.973 260.792 326.429 262.374 320.37C263.967 314.313 264.951 308.763 265.523 304.079C266.103 299.395 266.335 295.586 266.439 292.956C266.507 291.642 266.508 290.619 266.542 289.927C266.555 289.605 266.567 289.347 266.576 289.14C266.586 288.962 266.596 288.871 266.605 288.871" fill="#182e35" fill-rule="nonzero" opacity="1" stroke="none" vectornator:layerName="path"/>
<path d="M192.021 261.244C192.027 261.251 191.976 261.317 191.87 261.441C191.742 261.587 191.584 261.765 191.392 261.982C190.946 262.434 190.373 263.174 189.635 264.123C188.208 266.056 186.405 269.065 184.842 273.075C183.245 277.064 181.912 282.052 181.252 287.697C180.63 293.338 180.698 299.661 182.052 306.079C182.69 309.295 183.673 312.355 184.848 315.209C185.983 318.085 187.452 320.693 188.957 323.096C192.059 327.858 195.659 331.572 198.96 334.315C200.574 335.741 202.214 336.8 203.584 337.821C205.04 338.718 206.266 339.537 207.313 340.133C208.339 340.697 209.151 341.144 209.745 341.471C209.998 341.616 210.204 341.734 210.372 341.83C210.512 341.914 210.582 341.961 210.578 341.969C210.574 341.977 210.496 341.946 210.348 341.878C210.174 341.794 209.96 341.69 209.697 341.564C209.091 341.258 208.262 340.839 207.213 340.309C206.148 339.739 204.901 338.941 203.424 338.064C202.03 337.06 200.366 336.016 198.726 334.599C195.372 331.874 191.71 328.153 188.555 323.356C187.023 320.937 185.53 318.307 184.376 315.404C183.184 312.523 182.187 309.432 181.542 306.185C180.175 299.704 180.123 293.324 180.775 287.641C181.467 281.954 182.847 276.939 184.5 272.937C186.119 268.916 187.986 265.91 189.473 264.001C190.242 263.063 190.843 262.342 191.315 261.91C191.524 261.706 191.694 261.54 191.833 261.403C191.951 261.292 192.015 261.237 192.021 261.244" fill="#182e35" fill-rule="nonzero" opacity="1" stroke="none" vectornator:layerName="path"/>
<path d="M106.938 357.326C106.95 357.319 107.015 357.413 107.136 357.613C107.278 357.859 107.452 358.16 107.672 358.539L107.524 358.59C106.811 355.233 104.868 344.927 102.664 332.742C101.336 325.237 100.135 318.445 99.2511 313.441C98.8471 311.021 98.5171 309.038 98.2741 307.582C98.1771 306.935 98.0981 306.407 98.0351 305.984C97.9861 305.618 97.9691 305.425 97.9861 305.421C98.0041 305.418 98.0561 305.605 98.1381 305.966C98.2271 306.384 98.3381 306.906 98.4741 307.546C98.7571 308.994 99.1421 310.969 99.6131 313.376C100.537 318.373 101.791 325.154 103.177 332.65C105.381 344.834 107.172 355.168 107.68 358.561L107.756 359.072L107.532 358.612C107.341 358.219 107.189 357.906 107.065 357.65C106.967 357.438 106.926 357.332 106.938 357.326" fill="#182e35" fill-rule="nonzero" opacity="1" stroke="none" vectornator:layerName="path"/>
<path d="M104.529 355.273C104.399 355.335 101.881 350.267 98.9049 343.957C95.9279 337.643 93.6209 332.478 93.7509 332.417C93.8809 332.355 96.3989 337.421 99.3759 343.734C102.352 350.044 104.659 355.211 104.529 355.273" fill="#182e35" fill-rule="nonzero" opacity="1" stroke="none" vectornator:layerName="path"/>
<g opacity="0.300003" vectornator:layerName="path">
<clipPath clip-rule="nonzero" id="ClipPath_4">
<path d="M103.505 466.121L200.229 466.121L200.229 346.803L103.505 346.803L103.505 466.121Z"/>
</clipPath>
<g clip-path="url(#ClipPath_4)">
<path d="M103.505 465.217C109.775 468.368 124.305 462.807 129.589 455.875C134.873 448.945 136.402 439.934 137.549 431.294C139.277 418.275 140.511 405.189 141.245 392.074C152.002 399.948 165.484 404.021 178.8 403.416C187.283 403.031 196.951 399.661 199.575 391.585C202.171 383.597 196.582 375.384 190.777 369.313C185.251 363.532 179.215 358.239 172.764 353.515C168.528 350.412 163.892 347.472 158.672 346.902C153.042 346.286 147.347 348.594 143.067 352.303C138.787 356.011 135.797 361.01 133.605 366.233C126.916 382.176 127.277 400.031 125.912 417.267C124.547 434.503 122.718 452.358 107.447 463.578" fill="#000000" fill-rule="nonzero" opacity="1" stroke="none" vectornator:layerName="path"/>
</g>
</g>
<path d="M103.91 465.284C103.906 465.272 104.053 465.201 104.339 465.075C104.658 464.937 105.076 464.758 105.6 464.531C106.647 463.943 108.198 463.081 109.88 461.589C113.291 458.688 117.496 453.745 121.434 447.186L121.406 447.269C122.321 440.417 123.388 432.424 124.522 423.92C126.356 410.441 127.981 398.235 129.287 389.421C130.096 385.07 130.753 381.535 131.216 379.041C131.449 377.85 131.633 376.909 131.766 376.224C131.83 375.929 131.881 375.688 131.923 375.494C131.961 375.33 131.985 375.247 131.993 375.248C132.002 375.25 131.996 375.336 131.975 375.504C131.947 375.7 131.912 375.943 131.87 376.242C131.76 376.931 131.608 377.878 131.416 379.076C130.992 381.575 130.39 385.118 129.651 389.477C128.466 398.347 126.837 410.532 125.038 423.994C123.88 432.493 122.792 440.481 121.859 447.331L121.852 447.378L121.83 447.415C117.822 454.003 113.549 458.924 110.053 461.796C108.33 463.27 106.738 464.108 105.661 464.659C105.098 464.886 104.657 465.037 104.363 465.143C104.067 465.248 103.913 465.296 103.91 465.284" fill="#182e35" fill-rule="nonzero" opacity="1" stroke="none" vectornator:layerName="path"/>
<path d="M200.165 467.453C200.156 467.455 200.125 467.349 200.072 467.139C200.015 466.9 199.941 466.591 199.848 466.201C199.675 465.373 199.342 464.164 199.077 462.576C198.485 459.412 197.875 454.777 197.7 449.018C197.536 443.263 197.811 436.388 198.778 428.836C199.698 421.277 201.23 413.045 203.007 404.452C204.713 395.836 206.862 387.74 208.602 380.348C210.367 372.961 211.505 366.198 211.809 360.467C212.107 354.736 211.748 350.084 211.311 346.905C211.14 345.308 210.866 344.089 210.754 343.25C210.694 342.853 210.646 342.539 210.61 342.298C210.58 342.082 210.569 341.971 210.578 341.969C210.586 341.968 210.615 342.075 210.662 342.287C210.712 342.526 210.776 342.838 210.857 343.23C211.002 344.064 211.31 345.28 211.513 346.878C212.011 350.057 212.429 354.724 212.176 360.486C211.918 366.248 210.811 373.052 209.069 380.456C207.351 387.872 205.222 395.95 203.517 404.557C201.741 413.145 200.198 421.359 199.254 428.895C198.264 436.425 197.952 443.271 198.068 449.009C198.196 454.749 198.748 459.374 199.276 462.541C199.511 464.131 199.811 465.344 199.95 466.179C200.022 466.572 200.08 466.886 200.123 467.126C200.16 467.341 200.174 467.451 200.165 467.453" fill="#182e35" fill-rule="nonzero" opacity="1" stroke="none" vectornator:layerName="path"/>
<path d="M216.993 354.695C216.867 354.611 218.593 351.859 220.509 348.35C222.434 344.844 223.823 341.909 223.961 341.969C224.025 341.998 223.759 342.77 223.238 343.98C222.717 345.191 221.931 346.836 220.965 348.6C219.998 350.364 219.036 351.912 218.297 353.003C217.558 354.093 217.051 354.734 216.993 354.695" fill="#182e35" fill-rule="nonzero" opacity="1" stroke="none" vectornator:layerName="path"/>
<g opacity="0.300003" vectornator:layerName="path">
<clipPath clip-rule="nonzero" id="ClipPath_5">
<path d="M219.652 350.542L255.021 350.542L255.021 315.537L219.652 315.537L219.652 350.542Z"/>
</clipPath>
<g clip-path="url(#ClipPath_5)">
<path d="M220.216 350.542C225.429 344.442 231.08 338.718 237.112 333.426C238.761 331.979 240.554 330.508 242.719 330.148C245.363 329.71 248.048 331.072 249.881 333.027C251.713 334.982 252.851 337.472 253.957 339.912C256.577 333.466 253.858 326.21 251.159 319.796C250.281 317.71 248.757 315.232 246.518 315.567C245.323 315.747 244.426 316.717 243.637 317.632C234.975 327.687 226.958 338.297 219.652 349.376" fill="#000000" fill-rule="nonzero" opacity="1" stroke="none" vectornator:layerName="path"/>
</g>
</g>
<g opacity="0.300003" vectornator:layerName="path">
<clipPath clip-rule="nonzero" id="ClipPath_6">
<path d="M290.255 384.772L308.513 384.772L308.513 299.74L290.255 299.74L290.255 384.772Z"/>
</clipPath>
<g clip-path="url(#ClipPath_6)">
<path d="M308.138 302.909L308.512 299.74C304.704 300.105 300.021 300.553 296.978 302.871C293.429 305.577 292.031 310.187 290.836 314.487C288.117 324.273 295.83 374.624 295.438 384.772C298.815 383.339 301.186 361.731 301.793 358.113C303.271 349.3 300.281 343.799 301.186 341.345C302.091 338.891 302.068 336.21 302.142 333.596C302.471 321.915 303.631 313.691 308.138 302.909" fill="#000000" fill-rule="nonzero" opacity="1" stroke="none" vectornator:layerName="path"/>
</g>
</g>
<path d="M258.434 141.307C253.593 135.305 255.178 125.72 260.719 120.357C266.259 114.994 274.687 113.451 282.291 114.729C293.298 116.579 303.205 124.056 308.004 134.133C310.596 139.578 312.01 146.016 316.77 149.722C320.955 152.978 326.705 153.265 331.468 155.596C337.851 158.722 341.966 165.405 343.427 172.361C344.888 179.317 344.011 186.555 342.538 193.508C341.187 199.89 339.385 206.786 342.126 212.705C344.798 218.477 351.043 221.622 355.154 226.477C362.887 235.611 361.133 251.154 351.558 258.334C348.505 260.623 344.647 262.364 343.189 265.89C341.857 269.11 342.993 272.761 342.924 276.244C342.747 285.212 332.86 292.59 324.213 290.204C319.848 289.001 315.826 285.779 311.339 286.394C306.883 287.004 303.908 291.121 300.286 293.789C293.162 299.037 282.25 298.232 275.975 291.994C273.348 289.383 271.237 285.827 267.657 284.876C264.084 283.929 260.326 285.981 256.663 285.482C251.87 284.828 248.719 280.068 247.304 275.442C245.889 270.815 245.508 265.8 243.115 261.595C239.982 256.089 234.017 252.971 229.005 249.096C217.942 240.544 210.843 227.063 210.051 213.103C209.258 199.143 214.786 184.945 224.809 175.195" fill="#182e35" fill-rule="nonzero" opacity="1" stroke="none" vectornator:layerName="path"/>
<path d="M191.361 261.267C181.794 272.239 178.022 287.996 181.584 302.11C185.145 316.224 196.951 336.85 210.578 341.969C219.416 335.492 230.775 326.444 239.016 319.222C244.35 314.548 247.178 307.716 249.821 301.136C251.345 297.34 252.893 293.236 251.936 289.259C251.232 286.33 249.248 283.887 247.16 281.716C233.752 267.772 213.318 260.956 194.224 264.06" fill="#ff9f77" fill-rule="nonzero" opacity="1" stroke="none" vectornator:layerName="path"/>
<path d="M231.833 159.676L231.833 159.676C236.901 149.398 248.472 144.07 259.576 146.9L293.695 155.597C310.745 161.093 324.094 187.476 314.042 210.59C306.105 228.841 297.974 251.773 289.817 264.369C273.416 289.696 250.998 283.909 250.998 283.909L238.896 310.903L189.427 264.511L231.833 159.676Z" fill="#ff9f77" fill-rule="nonzero" opacity="1" stroke="none" vectornator:layerName="path"/>
<path d="M289.429 217.727C290.073 217.485 291.745 220.676 295.451 222.458C299.128 224.291 302.766 223.703 302.949 224.351C303.049 224.647 302.222 225.247 300.622 225.535C299.042 225.829 296.654 225.701 294.352 224.575C292.052 223.446 290.524 221.658 289.83 220.249C289.115 218.825 289.121 217.827 289.429 217.727" fill="#182e35" fill-rule="nonzero" opacity="1" stroke="none" vectornator:layerName="path"/>
<path d="M250.798 200.138C251.526 200.004 253.178 203.553 257.16 206.016C261.11 208.527 265.168 208.558 265.33 209.252C265.42 209.571 264.475 210.042 262.684 210.056C260.919 210.082 258.285 209.536 255.813 207.986C253.341 206.434 251.764 204.342 251.083 202.783C250.385 201.206 250.453 200.186 250.798 200.138" fill="#182e35" fill-rule="nonzero" opacity="1" stroke="none" vectornator:layerName="path"/>
<path d="M267.17 237.863C267.247 237.642 269.764 238.275 273.766 239.468C274.769 239.795 275.763 240.007 276.215 239.423C276.748 238.829 276.805 237.616 276.835 236.293C276.962 233.569 277.097 230.716 277.235 227.724C277.905 215.567 278.845 205.743 279.334 205.775C279.823 205.806 279.678 215.685 279.007 227.842C278.818 230.828 278.642 233.677 278.467 236.401C278.347 237.654 278.424 239.168 277.296 240.39C276.719 240.993 275.783 241.201 275.095 241.094C274.396 241.009 273.852 240.78 273.363 240.598C269.461 239.114 267.09 238.083 267.17 237.863" fill="#182e35" fill-rule="nonzero" opacity="1" stroke="none" vectornator:layerName="path"/>
<path d="M250.954 283.975C250.954 283.975 231.196 276.566 217.875 257.603C217.875 257.603 218.623 280.757 247.926 290.759L250.954 283.975Z" fill="#ec7b54" fill-rule="nonzero" opacity="1" stroke="none" vectornator:layerName="path"/>
<path d="M253.895 187.317C254.524 186.307 258.431 187.676 263.272 188.105C268.105 188.631 272.204 188.055 272.623 189.169C272.802 189.697 271.921 190.585 270.158 191.319C268.41 192.054 265.762 192.544 262.861 192.261C259.962 191.971 257.462 190.972 255.891 189.909C254.305 188.845 253.616 187.8 253.895 187.317" fill="#182e35" fill-rule="nonzero" opacity="1" stroke="none" vectornator:layerName="path"/>
<path d="M297.49 198.324C298.755 198.316 300.311 201.426 303.006 204.404C305.61 207.462 308.503 209.421 308.317 210.659C308.201 211.233 307.151 211.476 305.493 210.985C303.852 210.51 301.66 209.201 299.838 207.127C298.019 205.052 297.015 202.721 296.769 201.047C296.511 199.353 296.9 198.357 297.49 198.324" fill="#182e35" fill-rule="nonzero" opacity="1" stroke="none" vectornator:layerName="path"/>
<path d="M258.499 248.312C258.499 248.312 260.821 247.099 259.744 242.645C258.667 238.189 253 234.15 249.412 237.815C249.412 237.815 245.788 238.095 247.213 242.272C248.639 246.45 256.895 252.349 258.435 248.99" fill="#ec7b54" fill-rule="nonzero" opacity="1" stroke="none" vectornator:layerName="path"/>
<path d="M257.149 251.716C256.488 251.602 257.494 247.253 254.492 243.299C251.5 239.338 246.751 238.746 246.859 238.13C246.861 237.843 248.087 237.526 250.056 237.929C251.99 238.31 254.648 239.58 256.485 241.998C258.314 244.42 258.702 247.172 258.434 248.99C258.176 250.847 257.44 251.811 257.149 251.716" fill="#182e35" fill-rule="nonzero" opacity="1" stroke="none" vectornator:layerName="path"/>
<path d="M202.658 145.467C197.353 149.535 194.199 156.261 194.463 162.942C194.611 166.68 195.523 171.094 192.768 173.626C189.965 176.203 185.551 174.821 181.742 174.84C175.116 174.875 168.961 180.392 168.203 186.976C167.932 189.338 168.24 191.894 167.035 193.943C165.781 196.077 163.266 197.033 161.15 198.316C155.893 201.502 152.536 207.6 152.655 213.747C152.773 219.894 156.364 225.857 161.74 228.838C164.186 230.195 167.051 231.043 168.837 233.195C170.886 235.664 170.964 239.16 171.967 242.208C173.891 248.05 179.782 252.344 185.933 252.389C192.084 252.434 198.036 248.226 200.046 242.412" fill="#182e35" fill-rule="nonzero" opacity="1" stroke="none" vectornator:layerName="path"/>
<path d="M257.959 135.898C255.955 141.741 256.688 148.461 259.903 153.735C263.118 159.01 268.756 162.739 274.867 163.636C279.61 164.332 285.269 163.731 288.329 167.419C291.548 171.299 289.641 177.485 292.187 181.836C295.825 188.054 302.027 193.015 307.912 197.17C312.457 200.379 307.258 209.314 309.238 214.513C311.22 219.711 319.372 231.576 324.932 231.788C326.147 227.137 333.069 206.714 333.19 201.909C333.311 197.104 332.229 192.112 329.255 188.335C327.625 186.265 325.478 184.613 324.066 182.388C321.019 177.583 322.043 171.361 321.055 165.758C319.779 158.535 314.779 152.074 308.106 149.027C302.556 146.492 296.046 146.211 290.919 142.9C287.129 140.452 284.421 136.537 280.493 134.318C272.844 129.997 263.259 133.29 255.355 137.124" fill="#182e35" fill-rule="nonzero" opacity="1" stroke="none" vectornator:layerName="path"/>
<path d="M221.127 194.027C220.336 193.5 215.093 197.47 220.27 200.636C229.338 206.184 237.129 187.442 236.795 181.214C241.415 179.263 246.091 177.28 250.159 174.19C254.226 171.1 260.313 160.981 261.401 155.865C264.871 157.271 281.636 157.398 280.182 156.392C276.873 154.102 270.177 149.19 269.289 145.346C267.357 136.997 261.427 129.735 253.594 127.551C245.761 125.368 236.324 128.941 232.001 136.528C222.673 133.447 211.615 136.218 204.172 143.5C196.729 150.783 193.202 162.283 195.295 172.442C195.844 175.102 196.742 177.88 195.889 180.517C194.833 183.785 191.554 185.548 188.945 187.663C181.829 193.431 178.765 203.625 179.641 212.827C180.517 222.029 182.086 225.69 186.642 229.015C195.554 235.523 177.033 252.143 193.624 257.76" fill="#182e35" fill-rule="nonzero" opacity="1" stroke="none" vectornator:layerName="path"/>
<path d="M344.962 257.554C344.917 257.487 345.548 257.142 346.524 256.229C347.481 255.319 348.866 253.85 349.865 251.526C350.886 249.255 351.584 246.081 350.801 242.606C350.021 239.122 347.392 235.801 343.869 232.971C340.449 230.029 335.956 227.408 332.776 222.783C329.559 218.137 329.031 211.81 330.046 205.811C331.048 199.72 333.585 193.804 335.212 187.496C336.03 184.346 336.544 181.07 336.436 177.744C336.328 174.44 335.591 171.066 333.822 168.206C332.063 165.342 329.352 163.206 326.381 161.761C323.4 160.303 320.18 159.448 316.981 158.898C313.773 158.362 310.492 158.061 307.377 157.056C304.278 156.131 301.316 154.09 299.91 151.173C298.456 148.315 298.142 145.279 297.505 142.532C296.942 139.757 295.896 137.251 294.272 135.185C291.092 130.997 286.381 128.675 282.024 127.856C277.598 127.052 273.45 127.915 270.163 129.283C266.858 130.689 264.341 132.575 262.475 134.283C258.774 137.786 257.545 140.436 257.399 140.327C257.38 140.316 257.453 140.154 257.615 139.847C257.787 139.548 258.007 139.076 258.39 138.517C259.104 137.367 260.287 135.735 262.122 133.914C263.968 132.116 266.496 130.123 269.874 128.61C273.23 127.135 277.532 126.159 282.183 126.942C286.752 127.742 291.709 130.103 295.134 134.521C296.873 136.679 298.041 139.441 298.63 142.277C299.291 145.089 299.647 148.048 300.983 150.615C302.265 153.21 304.825 154.981 307.762 155.864C310.7 156.802 313.912 157.096 317.194 157.631C320.479 158.187 323.813 159.058 326.956 160.589C330.083 162.104 333.024 164.397 334.939 167.518C336.861 170.629 337.632 174.239 337.74 177.703C337.85 181.186 337.301 184.602 336.457 187.816C334.771 194.252 332.233 200.118 331.238 206.011C330.224 211.834 330.715 217.825 333.683 222.181C336.613 226.557 341.021 229.239 344.467 232.262C348.011 235.181 350.762 238.723 351.517 242.448C352.273 246.139 351.454 249.421 350.328 251.739C349.221 254.111 347.73 255.566 346.697 256.429C345.643 257.295 344.962 257.554 344.962 257.554" fill="#365a64" fill-rule="nonzero" opacity="1" stroke="none" vectornator:layerName="path"/>
<path d="M314.289 197.171C314.405 197.218 313.801 198.602 313.192 201.222C312.607 203.828 312.066 207.755 312.838 212.486C313.215 214.84 313.916 217.382 315.102 219.916C316.247 222.488 317.999 224.872 320.002 227.417C320.97 228.709 321.955 230.093 322.671 231.707C323.405 233.304 323.769 235.175 323.614 237.013C323.32 240.73 321.494 244.031 320.131 247.396C318.704 250.727 317.904 254.294 319.209 257.387C320.429 260.474 322.902 262.828 325.15 265.075C327.43 267.314 329.635 269.572 331.025 272.209C331.685 273.533 332.142 274.936 332.285 276.319C332.375 277.699 332.323 279.041 331.989 280.257C330.752 285.216 327.289 288.046 324.835 289.175C323.557 289.72 322.499 289.955 321.778 290.017C321.054 290.063 320.679 290.064 320.677 290.018C320.649 289.862 322.225 289.914 324.609 288.716C326.887 287.505 330.053 284.692 331.084 280.051C331.609 277.768 331.388 275.129 330.063 272.717C328.739 270.299 326.611 268.154 324.304 265.937C322.045 263.709 319.414 261.312 318.01 257.852C317.323 256.14 317.086 254.189 317.343 252.311C317.582 250.427 318.209 248.631 318.917 246.899C320.329 243.453 322.069 240.242 322.332 236.917C322.685 233.574 320.918 230.65 319.032 228.139C317.098 225.633 315.245 223.045 314.111 220.364C312.921 217.709 312.25 215.062 311.92 212.623C311.244 207.722 311.949 203.71 312.697 201.095C313.078 199.781 313.456 198.785 313.768 198.137C314.07 197.484 314.248 197.153 314.289 197.171" fill="#365a64" fill-rule="nonzero" opacity="1" stroke="none" vectornator:layerName="path"/>
<path d="M164.246 228.564C164.227 228.585 164.034 228.443 163.675 228.143C163.309 227.852 162.813 227.361 162.224 226.669C161.07 225.286 159.561 222.953 158.901 219.565C158.231 216.263 158.489 211.684 161.353 207.69C164.105 203.769 169.313 200.511 175.421 200.804L174.868 201.537C173.749 198.397 172.904 194.874 173.184 191.134C173.4 187.429 175.17 183.472 178.533 181.091C180.167 179.876 182.231 179.104 184.384 179.09C186.563 179.1 188.57 179.94 190.426 180.8C192.288 181.658 194.107 182.628 196.024 182.956C197.929 183.296 199.892 182.759 201.313 181.389C203.441 179.396 204.403 176.432 204.59 173.524C204.825 170.582 204.538 167.587 204.845 164.596C205.455 158.597 208.331 153.231 212.212 149.44C216.096 145.583 221.083 143.502 225.749 142.866C230.448 142.233 234.883 142.963 238.464 144.464L237.898 144.688C239.477 141.425 242.239 139.412 244.782 138.372C247.356 137.303 249.803 137.151 251.709 137.338C253.635 137.54 255.031 138.124 255.924 138.562C256.792 139.063 257.21 139.371 257.19 139.4C257.128 139.572 255.422 138.116 251.669 137.816C249.824 137.709 247.482 137.927 245.053 139.007C242.651 140.059 240.1 142.022 238.698 145.056L238.522 145.435L238.131 145.279C234.664 143.896 230.394 143.256 225.899 143.915C221.429 144.581 216.717 146.6 213.051 150.292C209.382 153.924 206.675 159.054 206.121 164.721C205.832 167.55 206.125 170.53 205.89 173.627C205.692 176.695 204.68 180.039 202.203 182.354C200.549 183.979 198.025 184.672 195.811 184.247C193.587 183.854 191.711 182.817 189.877 181.976C188.056 181.122 186.221 180.38 184.379 180.371C182.544 180.377 180.737 181.027 179.267 182.11C176.232 184.251 174.603 187.768 174.369 191.232C174.08 194.717 174.847 198.109 175.905 201.168L176.175 201.951L175.35 201.902C169.709 201.565 164.727 204.555 162.078 208.213C159.322 211.919 158.972 216.249 159.526 219.452C160.069 222.73 161.439 225.046 162.486 226.462C163.559 227.883 164.305 228.5 164.246 228.564" fill="#365a64" fill-rule="nonzero" opacity="1" stroke="none" vectornator:layerName="path"/>
<path d="M257.548 143.428C257.613 143.658 255.602 143.331 253.038 145.18C250.483 146.988 248.271 151.365 247.621 156.918L247.565 157.395L247.094 157.356C242.372 156.966 236.403 158.804 232.366 163.509C231.394 164.678 230.539 166.047 230 167.496C229.487 168.985 229.228 170.637 228.975 172.335C228.718 174.032 228.485 175.797 227.95 177.573C227.486 179.335 226.349 181.175 224.795 182.296C221.477 184.886 217.401 185.335 213.838 185.902C210.204 186.393 206.793 186.996 203.849 188.488C197.904 191.368 193.992 196.37 192.277 201.016C190.498 205.709 190.564 209.917 190.912 212.683C191.268 215.483 191.861 216.962 191.737 217.001C191.695 217.017 191.53 216.658 191.253 215.954C191.006 215.243 190.654 214.18 190.407 212.761C189.897 209.959 189.671 205.623 191.406 200.695C193.081 195.811 197.092 190.494 203.316 187.403C206.399 185.798 210.049 185.131 213.65 184.63C217.213 184.064 221.08 183.562 223.981 181.267C226.837 179.254 227.146 175.469 227.701 172.141C227.965 170.438 228.234 168.725 228.814 167.07C229.448 165.41 230.366 163.989 231.435 162.72C235.837 157.697 242.174 155.876 247.179 156.388L246.654 156.825C247.449 151.044 249.887 146.562 252.726 144.74C254.11 143.823 255.395 143.509 256.241 143.427C257.104 143.379 257.547 143.38 257.548 143.428" fill="#365a64" fill-rule="nonzero" opacity="1" stroke="none" vectornator:layerName="path"/>
<path d="M223.058 196.873C225.91 191.286 222.079 184.259 215.806 184.273C212.362 184.28 208.658 186.147 205.579 192.05C197.37 207.792 214.867 212.786 215.13 212.35C215.292 212.078 219.719 203.416 223.058 196.873" fill="#ff9f77" fill-rule="nonzero" opacity="1" stroke="none" vectornator:layerName="path"/>
<path d="M213.432 203.878C213.389 203.792 213.057 203.927 212.483 203.898C211.923 203.869 211.072 203.607 210.411 202.871C209.067 201.393 209.043 198.023 210.447 195.146C211.153 193.692 212.165 192.484 213.262 191.62C214.343 190.719 215.507 190.302 216.422 190.591C217.355 190.833 217.686 191.643 217.648 192.187C217.63 192.737 217.366 192.999 217.435 193.069C217.459 193.131 217.911 192.982 218.123 192.265C218.221 191.919 218.23 191.451 218.018 190.956C217.801 190.452 217.327 190.006 216.711 189.765C215.453 189.216 213.778 189.763 212.573 190.711C211.299 191.631 210.128 192.97 209.334 194.603C207.781 197.828 207.857 201.643 209.789 203.487C210.746 204.353 211.844 204.501 212.515 204.378C213.205 204.244 213.472 203.935 213.432 203.878" fill="#ec7b54" fill-rule="nonzero" opacity="1" stroke="none" vectornator:layerName="path"/>
<path d="M214.699 445.021C211.836 444.792 208.891 442.831 207.319 440.755C206.667 439.894 199.712 427.789 198.815 425.535C197.249 421.602 198.332 419.422 198.902 417.118C199.729 413.774 204.898 415.734 204.898 415.734C204.898 415.734 220.116 442.029 219.772 442.831C219.429 443.632 217.562 445.25 214.699 445.021M207.375 415.49C205.985 412.907 202.408 411.317 202.408 411.317L199.428 403.966C199.428 403.966 200.62 401.383 199.428 398.204C198.236 395.025 189.494 376.547 189.693 375.952L187.43 375.819C187.43 375.819 195.488 395.373 196.282 396.366C197.077 397.36 198.237 403.178 196.25 403.972C194.263 404.767 190.041 402.616 188.253 400.828C186.465 399.04 180.77 385.586 179.777 382.804C178.783 380.023 180.553 376.15 180.553 376.15L182.143 372.375L179.957 372.375C179.957 372.375 178.566 376.349 177.772 380.124C176.977 383.899 185.918 400.389 187.308 402.177C188.699 403.966 193.468 405.357 196.051 407.145C198.634 408.933 198.236 414.496 198.236 414.496C198.236 414.496 196.051 417.476 195.852 421.052C195.653 424.628 203.6 441.517 208.965 445.093C214.329 448.669 220.687 446.086 221.283 446.286C221.879 446.484 223.27 443.503 223.27 443.503C223.27 443.503 208.766 418.073 207.375 415.49" fill="#182e35" fill-rule="nonzero" opacity="1" stroke="none" vectornator:layerName="path"/>
<path d="M223.27 443.503C223.27 443.503 267.583 426.639 269.651 424.729C271.721 422.819 279.201 411.837 279.201 411.837C279.201 411.837 282.862 412.474 282.385 413.429C281.907 414.384 274.904 425.365 267.424 428.549C259.943 431.732 221.283 446.285 221.283 446.285L223.27 443.503Z" fill="#182e35" fill-rule="nonzero" opacity="1" stroke="none" vectornator:layerName="path"/>
<path d="M83.0514 304.554L64.7964 409.807C64.7964 409.807 58.0764 430.286 59.0364 434.766C59.9964 439.246 63.3914 458.572 73.6314 464.652C83.8704 470.732 104.155 466.765 108.314 462.605C112.474 458.445 120.672 450.821 121.632 447.3C122.592 443.781 129.324 390.261 129.324 390.261L131.993 375.248C131.993 375.248 122.073 378.449 115.994 374.289C109.914 370.129 101.915 352.21 101.915 352.21L92.9554 365.969L83.0514 304.554Z" fill="#01739a" fill-rule="nonzero" opacity="1" stroke="none" vectornator:layerName="path"/>
<path d="M101.915 352.21C101.93 352.22 101.809 352.424 101.566 352.804C101.289 353.224 100.93 353.77 100.483 354.447C99.5412 355.873 98.1842 357.94 96.5522 360.523C93.2692 365.677 88.8862 372.894 84.0962 380.897C79.3062 388.903 74.9852 396.161 71.7722 401.365C70.1702 403.97 68.8482 406.062 67.9152 407.495C67.4652 408.172 67.1042 408.717 66.8252 409.136C66.5712 409.508 66.4312 409.698 66.4152 409.689C66.4002 409.679 66.5112 409.47 66.7372 409.079C66.9942 408.648 67.3282 408.086 67.7432 407.388C68.6522 405.868 69.9132 403.759 71.4572 401.175C74.6052 395.87 78.9012 388.63 83.6492 380.629C88.4402 372.624 92.8762 365.432 96.2432 360.323C97.9162 357.764 99.3222 355.725 100.316 354.332C100.796 353.677 101.183 353.149 101.48 352.743C101.751 352.383 101.9 352.199 101.915 352.21" fill="#182e35" fill-rule="nonzero" opacity="1" stroke="none" vectornator:layerName="path"/>
<path d="M129.699 388.158C129.712 388.17 129.582 388.32 129.322 388.595C129.054 388.861 128.69 389.289 128.148 389.762C127.092 390.732 125.444 392.056 123.102 393.173C121.924 393.701 120.579 394.202 119.069 394.444C117.569 394.718 115.915 394.798 114.213 394.562C112.512 394.342 110.752 393.887 109.033 393.164C107.319 392.43 105.626 391.502 104.001 390.37C102.407 389.197 100.998 387.866 99.7679 386.468C98.5709 385.04 97.5489 383.556 96.7159 382.062C95.0579 379.067 94.1529 376.086 93.6869 373.554C93.2299 371.013 93.2019 368.915 93.2779 367.48C93.3029 366.762 93.3979 366.208 93.4349 365.833C93.4819 365.458 93.5149 365.262 93.5329 365.264C93.5799 365.268 93.5159 366.06 93.4799 367.487C93.4669 368.913 93.5519 370.986 94.0489 373.485C94.5539 375.974 95.4829 378.898 97.1349 381.828C97.9649 383.29 98.9759 384.739 100.155 386.135C101.366 387.5 102.746 388.8 104.305 389.947C105.89 391.052 107.556 391.97 109.23 392.693C110.909 393.407 112.62 393.858 114.273 394.087C115.928 394.328 117.533 394.266 118.995 394.018C120.469 393.802 121.787 393.333 122.95 392.837C125.263 391.787 126.927 390.526 128.014 389.609C129.096 388.679 129.665 388.124 129.699 388.158" fill="#182e35" fill-rule="nonzero" opacity="1" stroke="none" vectornator:layerName="path"/>
<path d="M101.915 352.21L115.569 343.429C115.569 343.429 151.975 328.639 155.672 327.786C159.37 326.933 163.636 325.226 165.626 327.786C167.618 330.346 188.38 345.42 188.38 345.42C188.38 345.42 200.61 368.457 200.61 371.586C200.61 374.715 204.023 378.719 200.61 379.846L197.197 380.972C197.197 380.972 196.059 386.55 191.793 387.174C187.527 387.798 186.104 387.174 186.104 387.174C186.104 387.174 185.82 392.753 182.407 392.408C178.994 392.064 173.306 387.174 173.306 387.174C173.306 387.174 170.746 390.073 168.755 390.073C166.764 390.073 160.507 385.807 160.507 385.807L148.409 375.283L137.754 371.586L131.994 375.248C131.994 375.248 119.688 376.295 117.841 375.292C115.994 374.289 101.915 352.21 101.915 352.21" fill="#ff9f77" fill-rule="nonzero" opacity="1" stroke="none" vectornator:layerName="path"/>
<path d="M171.817 388.158C171.782 388.168 171.561 387.592 171.19 386.545C171.011 386.018 170.784 385.379 170.473 384.653C170.169 383.926 169.864 383.081 169.423 382.191C169.011 381.29 168.554 380.304 167.987 379.286C167.465 378.243 166.805 377.186 166.134 376.062C164.728 373.853 163.041 371.513 161.058 369.231C159.053 366.968 156.953 364.99 154.946 363.307C153.918 362.496 152.957 361.703 151.99 361.051C151.054 360.355 150.137 359.774 149.296 359.248C148.472 358.695 147.674 358.283 146.992 357.887C146.314 357.484 145.709 357.175 145.211 356.929C144.221 356.426 143.679 356.131 143.693 356.097C143.708 356.064 144.277 356.297 145.299 356.747C145.813 356.966 146.434 357.249 147.13 357.63C147.829 358.004 148.645 358.397 149.488 358.933C150.347 359.443 151.283 360.012 152.238 360.697C153.224 361.34 154.204 362.127 155.25 362.935C157.292 364.613 159.424 366.601 161.45 368.888C163.452 371.193 165.145 373.566 166.543 375.809C167.208 376.952 167.86 378.025 168.37 379.086C168.924 380.123 169.366 381.125 169.76 382.043C170.182 382.949 170.465 383.808 170.745 384.551C171.032 385.29 171.233 385.943 171.382 386.481C171.695 387.553 171.852 388.148 171.817 388.158" fill="#ec7b54" fill-rule="nonzero" opacity="1" stroke="none" vectornator:layerName="path"/>
<path d="M186.079 387.807C186.064 387.816 185.959 387.665 185.772 387.37C185.593 387.07 185.302 386.639 184.993 386.05C184.361 384.878 183.559 383.12 182.773 380.874C181.977 378.631 181.215 375.906 180.312 372.909C179.386 369.928 178.308 366.638 176.468 363.557C174.664 360.451 172.135 358.054 169.627 356.223C167.106 354.386 164.682 352.907 162.833 351.393C160.968 349.904 159.674 348.425 158.971 347.288C158.626 346.714 158.375 346.261 158.247 345.932C158.106 345.612 158.04 345.44 158.056 345.433C158.111 345.407 158.392 346.09 159.139 347.175C159.884 348.261 161.19 349.669 163.061 351.104C164.916 352.563 167.346 354 169.91 355.835C172.465 357.667 175.069 360.112 176.915 363.289C178.794 366.439 179.867 369.771 180.772 372.771C181.652 375.786 182.375 378.511 183.121 380.755C183.858 383.002 184.601 384.766 185.174 385.958C185.763 387.14 186.117 387.785 186.079 387.807" fill="#ec7b54" fill-rule="nonzero" opacity="1" stroke="none" vectornator:layerName="path"/>
<path d="M196.339 381.212C196.321 381.216 196.269 381.045 196.185 380.717C196.093 380.33 195.981 379.856 195.844 379.279C195.71 378.652 195.535 377.89 195.276 377.017C195.025 376.143 194.788 375.134 194.403 374.055C194.052 372.966 193.661 371.775 193.151 370.53C192.694 369.265 192.083 367.964 191.469 366.583C190.162 363.858 188.554 360.944 186.607 358.05C184.63 355.174 182.509 352.608 180.456 350.39C179.397 349.312 178.412 348.264 177.402 347.375C176.432 346.442 175.469 345.642 174.585 344.914C173.723 344.16 172.872 343.569 172.151 343.015C171.434 342.453 170.789 342.01 170.256 341.654C169.77 341.316 169.37 341.037 169.044 340.81C168.77 340.611 168.631 340.5 168.64 340.484C168.649 340.469 168.807 340.551 169.1 340.721C169.441 340.926 169.859 341.179 170.367 341.485C170.92 341.816 171.585 342.236 172.321 342.778C173.062 343.313 173.933 343.888 174.816 344.628C175.72 345.341 176.703 346.131 177.693 347.056C178.723 347.939 179.728 348.982 180.804 350.06C182.893 352.276 185.044 354.857 187.037 357.757C189.002 360.676 190.61 363.623 191.904 366.381C192.511 367.777 193.112 369.095 193.554 370.377C194.051 371.638 194.424 372.843 194.756 373.945C195.119 375.038 195.333 376.06 195.558 376.945C195.791 377.829 195.939 378.603 196.043 379.237C196.141 379.823 196.222 380.306 196.289 380.698C196.339 381.032 196.357 381.209 196.339 381.212" fill="#ec7b54" fill-rule="nonzero" opacity="1" stroke="none" vectornator:layerName="path"/>
<path d="M142.759 342.388C142.773 342.473 142.052 342.582 141.002 343.036C139.958 343.48 138.586 344.342 137.54 345.722C136.495 347.104 136.037 348.659 135.893 349.784C135.741 350.918 135.831 351.641 135.745 351.651C135.69 351.663 135.465 350.947 135.527 349.748C135.58 348.565 136.006 346.886 137.125 345.408C138.244 343.931 139.744 343.066 140.869 342.694C142.005 342.309 142.756 342.331 142.759 342.388" fill="#ec7b54" fill-rule="nonzero" opacity="1" stroke="none" vectornator:layerName="path"/>
<path d="M152.902 332.752C152.985 332.886 151.219 334.004 149.479 335.858C147.721 337.699 146.702 339.523 146.564 339.447C146.443 339.399 147.283 337.406 149.101 335.501C150.903 333.582 152.848 332.634 152.902 332.752" fill="#ec7b54" fill-rule="nonzero" opacity="1" stroke="none" vectornator:layerName="path"/>
<path d="M295.611 214.005C293.882 214.719 293.531 216.786 293.558 218.657C293.592 220.999 294.182 221.38 296.094 225.303C299.218 231.714 302.957 243.869 302.957 243.869C302.957 243.869 299.892 274.57 301.91 281.777C303.731 288.283 309.879 289.948 309.879 289.948L307.08 313.661L340.569 313.661C340.569 313.661 339.378 290.71 338.658 283.714C337.898 276.315 338.405 231.563 338.405 231.563L335.114 207.666L327.358 194.255C327.358 194.255 323.322 196.681 325.071 201.597C326.82 206.513 327.974 215.942 327.974 215.942L308.585 186.756C308.585 186.756 304.773 187.668 304.544 194.721C304.544 194.721 298.904 198.391 302.533 204.348C306.584 210.999 310.797 230.983 309.317 230.983L297.285 213.313L295.611 214.005Z" fill="#ff9f77" fill-rule="nonzero" opacity="1" stroke="none" vectornator:layerName="path"/>
<path d="M307.08 313.661C307.08 313.661 307.12 313.126 307.23 312.09C307.347 311.04 307.517 309.504 307.739 307.497C308.202 303.454 308.881 297.528 309.751 289.932L309.845 290.072C308.346 289.599 306.892 288.804 305.58 287.706C304.265 286.617 303.128 285.183 302.379 283.485C301.576 281.797 301.371 279.847 301.204 277.893C301.088 275.926 301.039 273.89 301.061 271.794C301.153 263.406 301.803 254.03 302.748 243.848L302.757 243.931C301.188 238.993 299.453 233.782 297.274 228.503C296.725 227.185 296.138 225.873 295.478 224.575C294.855 223.257 294.044 222.033 293.565 220.549C293.351 219.796 293.319 219.02 293.325 218.261C293.342 217.498 293.412 216.72 293.657 215.965C293.891 215.218 294.342 214.469 295.059 214.03C295.42 213.804 295.785 213.682 296.132 213.532L297.194 213.092L297.374 213.018L297.483 213.179C301.474 219.032 305.695 225.225 310.037 231.595L309.584 231.687C309.777 230.206 309.69 228.613 309.523 227.061C309.336 225.502 309.088 223.934 308.723 222.38C308.028 219.262 307.053 216.165 305.921 213.092C304.818 209.997 303.43 207.005 302.078 203.914C301.437 202.342 301.101 200.54 301.536 198.822C301.933 197.102 302.966 195.576 304.4 194.505L304.286 194.691C304.477 193.211 304.763 191.67 305.354 190.182C305.649 189.439 306.03 188.714 306.528 188.055C307.041 187.406 307.626 186.792 308.53 186.502L308.693 186.45L308.802 186.613C308.872 186.719 308.949 186.835 309.026 186.951C315.586 196.827 321.997 206.479 328.187 215.8L327.722 215.973C327.208 212.083 326.589 208.241 325.675 204.538C325.442 203.614 325.184 202.701 324.879 201.812C324.574 200.895 324.348 199.919 324.396 198.933C324.472 196.941 325.612 195.125 327.23 194.043L327.44 193.903L327.571 194.131C330.22 198.716 332.802 203.187 335.32 207.547L335.344 207.588L335.35 207.634C336.494 215.993 337.587 223.969 338.622 231.533L338.624 231.549L338.624 231.565C338.485 243.943 338.412 255.268 338.428 265.291C338.439 270.303 338.466 274.99 338.582 279.316C338.643 281.482 338.765 283.539 338.965 285.52C339.131 287.499 339.254 289.386 339.375 291.177C339.838 298.339 340.123 303.961 340.318 307.791C340.408 309.696 340.476 311.16 340.523 312.162C340.565 313.15 340.569 313.661 340.569 313.661C340.569 313.661 340.519 313.153 340.456 312.165C340.394 311.164 340.304 309.702 340.186 307.798C339.948 303.971 339.623 298.351 339.123 291.193C338.992 289.405 338.86 287.518 338.685 285.544C338.477 283.578 338.345 281.488 338.275 279.325C338.142 274.993 338.1 270.306 338.072 265.293C338.024 255.266 338.071 243.941 338.186 231.56L338.188 231.592C337.142 224.031 336.036 216.056 334.879 207.699L334.908 207.786C332.386 203.429 329.798 198.96 327.144 194.378L327.485 194.466C326.026 195.446 324.949 197.142 324.894 198.955C324.851 199.865 325.058 200.762 325.351 201.647C325.665 202.557 325.928 203.481 326.163 204.415C327.089 208.154 327.71 211.998 328.228 215.911L328.373 217.003L327.762 216.083C321.568 206.764 315.155 197.113 308.593 187.239C308.516 187.123 308.438 187.008 308.368 186.901L308.639 187.012C308.004 187.213 307.388 187.778 306.94 188.371C306.482 188.98 306.119 189.664 305.838 190.375C305.271 191.799 304.99 193.303 304.803 194.752L304.788 194.864L304.688 194.938C303.395 195.902 302.395 197.358 302.042 198.94C301.637 200.53 301.945 202.214 302.558 203.719C303.891 206.77 305.3 209.813 306.402 212.914C307.539 216.006 308.519 219.122 309.219 222.27C309.586 223.839 309.837 225.425 310.024 227.007C310.19 228.597 310.289 230.169 310.075 231.785L309.992 232.419L309.623 231.877C305.288 225.503 301.072 219.305 297.089 213.447L297.377 213.534C296.692 213.836 295.903 214.096 295.311 214.431C294.713 214.795 294.322 215.427 294.105 216.111C293.881 216.796 293.809 217.536 293.794 218.269C293.786 219.006 293.817 219.739 294.013 220.422C294.442 221.779 295.265 223.053 295.888 224.369C296.549 225.676 297.142 227.006 297.691 228.329C299.871 233.638 301.596 238.852 303.158 243.807L303.17 243.847L303.166 243.89C302.2 254.057 301.527 263.43 301.408 271.796C301.379 273.888 301.421 275.915 301.529 277.871C301.689 279.816 301.881 281.714 302.656 283.361C304.106 286.702 307.057 288.88 309.912 289.823L310.019 289.858L310.007 289.963C309.085 297.552 308.365 303.473 307.874 307.514C307.623 309.516 307.431 311.05 307.3 312.098C307.166 313.132 307.08 313.661 307.08 313.661" fill="#ec7b54" fill-rule="nonzero" opacity="1" stroke="none" vectornator:layerName="path"/>
<path d="M321.88 233.552C321.844 233.557 321.717 232.967 321.517 231.897C321.334 230.825 321.007 229.285 320.576 227.392C319.681 223.616 318.142 218.452 315.626 213.086C313.132 207.708 310.253 203.156 308.083 199.933C306.999 198.319 306.099 197.028 305.471 196.138C304.847 195.246 304.515 194.743 304.543 194.721C304.572 194.699 304.959 195.162 305.634 196.018C306.313 196.871 307.261 198.133 308.387 199.724C310.641 202.902 313.586 207.45 316.099 212.866C318.632 218.272 320.128 223.497 320.936 227.311C321.322 229.224 321.595 230.781 321.717 231.865C321.856 232.948 321.915 233.547 321.88 233.552" fill="#ec7b54" fill-rule="nonzero" opacity="1" stroke="none" vectornator:layerName="path"/>
<path d="M332.282 226.1C332.149 226.155 331.053 223.829 329.834 220.904C328.614 217.978 327.733 215.562 327.866 215.507C327.999 215.451 329.094 217.777 330.314 220.704C331.533 223.628 332.414 226.044 332.282 226.1" fill="#ec7b54" fill-rule="nonzero" opacity="1" stroke="none" vectornator:layerName="path"/>
<path d="M304.406 303.843L304.406 303.843C298.532 355.715 290.877 410.936 282.079 468.304L350.25 468.304C363.066 439.924 355.228 415.162 351.81 379.869L340.569 299.739L304.406 303.843Z" fill="#01739a" fill-rule="nonzero" opacity="1" stroke="none" vectornator:layerName="path"/>
<path d="M282.079 468.304C282.07 468.303 282.078 468.188 282.103 467.966C282.134 467.717 282.174 467.392 282.225 466.982C282.348 466.085 282.522 464.82 282.744 463.205C283.224 459.896 283.91 455.164 284.757 449.331C286.482 437.592 288.857 421.428 291.481 403.574C294.053 385.693 296.226 369.485 297.659 357.737C298.387 351.864 298.939 347.106 299.312 343.818C299.502 342.2 299.65 340.931 299.756 340.033C299.809 339.622 299.851 339.298 299.885 339.049C299.916 338.828 299.936 338.715 299.946 338.716C299.955 338.717 299.952 338.831 299.937 339.055C299.918 339.305 299.892 339.631 299.86 340.043C299.778 340.944 299.662 342.216 299.515 343.839C299.203 347.135 298.706 351.9 298.025 357.78C296.685 369.543 294.568 385.764 291.997 403.648C289.423 421.526 286.937 437.689 285.121 449.386C284.206 455.209 283.464 459.932 282.944 463.236C282.681 464.844 282.475 466.105 282.329 466.997C282.257 467.405 282.199 467.727 282.155 467.974C282.113 468.194 282.088 468.305 282.079 468.304" fill="#182e35" fill-rule="nonzero" opacity="1" stroke="none" vectornator:layerName="path"/>
</g>
</g>
<g opacity="1" vectornator:layerName="path">
<clipPath clip-rule="nonzero" id="ClipPath_7">
<path d="M0 0L500 0L500 500L0 500L0 0Z"/>
</clipPath>
<g clip-path="url(#ClipPath_7)">
<path d="M429.782 467.85L235.387 467.85L260.47 331.419C261.36 326.579 265.579 323.066 270.5 323.066L445.171 323.066C451.571 323.066 456.389 328.894 455.185 335.181L429.782 467.85Z" fill="#365a64" fill-rule="nonzero" opacity="1" stroke="none" vectornator:layerName="path"/>
<path d="M235.387 467.85L161.655 467.85L161.951 467.628C168.528 462.696 176.469 459.916 184.687 459.672L237.414 458.121L235.387 467.85Z" fill="#365a64" fill-rule="nonzero" opacity="1" stroke="none" vectornator:layerName="path"/>
<path d="M282.079 323.252C282.071 323.302 281.538 323.151 280.507 323.145C279.484 323.137 277.938 323.347 276.188 324.216C274.451 325.072 272.512 326.607 271.008 328.93C269.505 331.262 268.486 334.306 267.833 337.748C267.199 341.198 266.641 345.031 265.952 349.118C265.249 353.205 264.499 357.572 263.64 362.154C261.946 371.324 259.939 381.377 257.757 391.911C253.367 412.982 249.304 432.031 246.647 445.877C245.31 452.798 244.279 458.408 243.58 462.287C243.235 464.187 242.963 465.681 242.768 466.754C242.674 467.23 242.598 467.611 242.538 467.913C242.483 468.173 242.448 468.306 242.435 468.304C242.423 468.302 242.434 468.165 242.465 467.9C242.506 467.597 242.559 467.211 242.623 466.731C242.787 465.652 243.014 464.149 243.302 462.24C243.915 458.345 244.87 452.718 246.143 445.782C248.672 431.905 252.657 412.83 257.046 391.765C259.227 381.232 261.254 371.189 262.982 362.031C263.859 357.455 264.63 353.096 265.358 349.017C266.073 344.933 266.657 341.126 267.33 337.648C268.021 334.181 269.093 331.079 270.667 328.708C272.25 326.337 274.265 324.802 276.066 323.961C277.879 323.109 279.472 322.943 280.51 322.998C281.558 323.054 282.079 323.252 282.079 323.252" fill="#182e35" fill-rule="nonzero" opacity="1" stroke="none" vectornator:layerName="path"/>
<path d="M364.176 392.388C364.176 397.578 359.968 401.786 354.778 401.786C349.586 401.786 345.378 397.578 345.378 392.388C345.378 387.198 349.586 382.99 354.778 382.99C359.968 382.99 364.176 387.198 364.176 392.388" fill="#f5f5f5" fill-rule="nonzero" opacity="1" stroke="none" vectornator:layerName="path"/>
</g>
</g>
<g opacity="1" vectornator:layerName="path">
<clipPath clip-rule="nonzero" id="ClipPath_8">
<path d="M0 0L500 0L500 500L0 500L0 0Z"/>
</clipPath>
<g clip-path="url(#ClipPath_8)">
<path d="M477.62 468.008C477.62 468.152 375.255 468.268 249.011 468.268C122.724 468.268 20.3808 468.152 20.3808 468.008C20.3808 467.863 122.724 467.747 249.011 467.747C375.255 467.747 477.62 467.863 477.62 468.008" fill="#182e35" fill-rule="nonzero" opacity="1" stroke="none" vectornator:layerName="path"/>
</g>
</g>
<path d="M206.576 109.807L203.906 84.6964L191.097 87.5884L180.061 68.0914L186.938 94.4524L199.93 91.4734L206.576 109.807Z" fill="#01739a" fill-rule="nonzero" opacity="1" stroke="none" vectornator:layerName="path"/>
<path d="M201.362 114.553L189.46 102.303L183.849 109.188L169.838 103.418L184.501 114.578L190.172 107.57L201.362 114.553Z" fill="#01739a" fill-rule="nonzero" opacity="1" stroke="none" vectornator:layerName="path"/>
<path d="M330.004 125.383L340.82 105.702L350.334 112.474L366.084 100.273L351.388 119.534L341.754 112.627L330.004 125.383Z" fill="#01739a" fill-rule="nonzero" opacity="1" stroke="none" vectornator:layerName="path"/>
<path d="M349.854 136.611L361.039 131.84L362.83 137.904L373.617 137.968L360.919 141.264L359.123 135.102L349.854 136.611Z" fill="#01739a" fill-rule="nonzero" opacity="1" stroke="none" vectornator:layerName="path"/>
</g>
<g opacity="1" vectornator:layerName="path">
<clipPath clip-rule="nonzero" id="ClipPath_9">
<path d="M0 0L500 0L500 500L0 500L0 0Z"/>
</clipPath>
<g clip-path="url(#ClipPath_9)">
<path d="M272.232 60.1497C272.232 60.1497 272.681 59.8627 273.578 59.3187C274.486 58.7997 275.851 58.0327 277.747 57.2277C281.496 55.6297 287.475 53.6657 295.439 53.9667C296.428 54.0147 297.449 54.0747 298.487 54.2157C299.528 54.3287 300.598 54.4967 301.667 54.7957C302.732 55.0927 303.81 55.4877 304.821 56.0797C305.818 56.6757 306.781 57.4657 307.392 58.5507C308.034 59.6127 308.233 60.9447 308.011 62.2137C307.765 63.4907 307.046 64.6507 306.16 65.6387C304.332 67.5977 301.832 68.9727 299.134 69.8927C293.777 71.8647 287.592 72.9237 281.061 72.4787C274.55 72.0537 267.667 70.1917 261.365 66.4347L261.222 66.3497L261.309 66.2077C263.715 62.2747 267.378 58.9897 271.692 56.6717C276.01 54.3467 280.972 52.9167 286.155 52.5297C291.341 52.1397 296.711 52.6577 302.053 53.8157C304.728 54.3897 307.408 55.0997 310.084 55.9277C312.754 56.7537 315.478 57.6217 318.039 58.9727C320.586 60.3047 322.967 62.2287 324.447 64.8367C325.174 66.1317 325.706 67.5727 325.839 69.0867C325.998 70.5967 325.705 72.1447 325.105 73.5457C323.853 76.3827 321.298 78.3957 318.605 79.8257C315.882 81.2787 312.878 82.1877 309.846 82.8967C297.721 85.8717 284.472 86.3567 271.307 83.8787C270.481 83.7417 269.666 83.5437 268.843 83.3727C268.02 83.2057 267.201 83.0117 266.384 82.7987C264.748 82.4077 263.095 81.9637 261.512 81.3057C259.928 80.6627 258.389 79.8317 257.061 78.6957C255.744 77.5697 254.662 76.0277 254.371 74.2497C254.042 72.4867 254.513 70.6217 255.489 69.1417C256.451 67.6387 257.791 66.4377 259.221 65.4107C260.662 64.3837 262.24 63.5717 263.836 62.8277C264.623 62.4287 265.436 62.0837 266.252 61.7417C267.062 61.3847 267.882 61.0507 268.721 60.7557C275.37 58.2637 282.537 56.8727 289.819 56.7627C293.459 56.7017 297.126 56.9497 300.763 57.5247C301.674 57.6597 302.584 57.8137 303.485 58.0177C304.39 58.2037 305.297 58.3837 306.19 58.6337C307.986 59.0717 309.785 59.5947 311.502 60.3507C313.218 61.0927 314.878 62.0367 316.304 63.2987C317.725 64.5477 318.888 66.1967 319.331 68.0917L319.477 68.8017L319.536 69.5257C319.602 70.0077 319.524 70.4927 319.504 70.9767C319.357 71.9307 319.117 72.8847 318.667 73.7437C317.836 75.4997 316.498 76.9407 315.048 78.1827C313.587 79.4277 311.954 80.4487 310.251 81.3287C309.402 81.7757 308.521 82.1607 307.643 82.5327C306.768 82.9197 305.879 83.2757 304.985 83.6207C301.414 85.0127 297.723 86.1497 293.953 87.0097C286.418 88.7557 278.564 89.4197 270.716 88.9267C266.794 88.6787 262.809 87.8597 259.288 85.9217C257.551 84.9417 255.923 83.6437 254.821 81.9207C253.733 80.1977 253.223 78.1207 253.379 76.0817C253.515 74.4067 254.129 72.8037 255.004 71.4017C255.88 69.9947 256.992 68.7557 258.218 67.6717C260.675 65.4977 263.569 63.8897 266.551 62.6577C272.503 60.1247 278.842 58.6277 285.206 58.1617C288.388 57.9267 291.578 57.9487 294.734 58.2277C296.312 58.3657 297.882 58.5647 299.437 58.8377C300.99 59.0907 302.553 59.4147 304.046 59.9477C305.537 60.4747 306.999 61.1307 308.291 62.0677C309.579 62.9887 310.737 64.1887 311.348 65.6967C311.997 67.1807 312.018 68.9057 311.502 70.4197C310.992 71.9427 310.023 73.2637 308.85 74.3137C306.454 76.4327 303.35 77.3187 300.404 78.0377C297.429 78.7437 294.472 79.4457 291.512 80.0977C285.599 81.4037 279.676 82.5047 273.737 82.9747C267.807 83.4717 261.853 83.2547 256.122 82.1257C250.402 80.9857 244.902 78.8577 240.177 75.6237L239.92 75.4477L240.154 75.2417C248.378 68.0037 258.625 63.6707 268.92 62.1887C279.235 60.6947 289.688 62.0397 298.753 66.0407C299.864 66.5977 300.937 67.2457 301.874 68.0727C302.814 68.8837 303.619 69.9027 304.037 71.1027C304.435 72.3087 304.371 73.6467 303.862 74.7987C303.339 75.9467 302.467 76.8717 301.501 77.6057C299.548 79.0897 297.249 79.8787 295.023 80.6287C292.773 81.3497 290.485 81.8897 288.19 82.2527C283.593 82.9557 278.974 82.9637 274.527 82.2577C273.421 82.0517 272.278 81.7367 271.37 80.9817C270.447 80.2437 269.995 78.9817 270.217 77.8287C270.465 76.6797 271.172 75.7387 271.968 74.9737C272.766 74.1977 273.696 73.5877 274.667 73.0847C282.588 69.5187 291.121 68.3997 299.034 69.2647C301.012 69.4857 302.977 69.8527 304.8 70.5917C306.616 71.3157 308.303 72.4507 309.441 74.0247C310.584 75.5697 311.251 77.5007 311.033 79.4047C310.824 81.3287 309.614 82.9397 308.234 84.1007C306.845 85.2947 305.269 86.1547 303.745 87.0297C302.19 87.8557 300.627 88.6217 299.029 89.2397C295.847 90.5097 292.615 91.3787 289.429 91.8927C283.05 92.9217 276.885 92.4997 271.438 91.1097L271.253 91.0627L271.365 90.9087C274.012 87.2697 277.666 84.8017 281.372 83.4397C285.092 82.0777 288.911 81.7607 292.294 82.3637C293.987 82.6337 295.595 83.1847 296.91 84.0957C297.56 84.5557 298.128 85.1157 298.544 85.7627C298.941 86.4157 299.213 87.1377 299.28 87.8697C299.442 89.3437 298.903 90.7227 298.18 91.8067C297.461 92.9117 296.532 93.7687 295.602 94.4767C293.715 95.8997 291.697 96.5007 290.071 97.1637C288.418 97.7907 287.053 98.3777 286.019 98.9657C284.987 99.5597 284.278 100.123 283.844 100.54C283.617 100.737 283.474 100.915 283.365 101.019C283.258 101.128 283.203 101.18 283.203 101.18C283.203 101.18 283.391 100.939 283.82 100.514C284.247 100.088 284.954 99.5117 285.984 98.9057C287.018 98.3047 288.383 97.7057 290.034 97.0667C291.659 96.3937 293.665 95.7817 295.52 94.3677C296.436 93.6637 297.351 92.8117 298.053 91.7227C298.759 90.6537 299.275 89.3087 299.112 87.8887C299.046 87.1827 298.781 86.4857 298.395 85.8577C297.991 85.2337 297.44 84.6927 296.804 84.2457C295.519 83.3617 293.935 82.8217 292.26 82.5607C288.91 81.9727 285.13 82.2977 281.451 83.6547C277.786 85.0127 274.179 87.4627 271.575 91.0597L271.502 90.8587C276.919 92.2287 283.047 92.6347 289.382 91.6007C292.546 91.0847 295.755 90.2147 298.912 88.9477C300.498 88.3317 302.047 87.5687 303.589 86.7467C305.101 85.8767 306.669 85.0147 308.018 83.8487C309.364 82.7117 310.503 81.1747 310.696 79.3657C310.9 77.5687 310.264 75.7167 309.161 74.2307C308.066 72.7197 306.442 71.6287 304.668 70.9217C302.887 70.2027 300.954 69.8427 298.994 69.6267C291.15 68.7747 282.661 69.9077 274.844 73.4357C273.907 73.9227 273.006 74.5167 272.244 75.2597C271.481 75.9917 270.829 76.8847 270.611 77.9047C270.421 78.9157 270.808 80.0127 271.631 80.6717C272.441 81.3497 273.524 81.6597 274.599 81.8567C278.986 82.5477 283.576 82.5377 288.125 81.8367C290.398 81.4737 292.664 80.9377 294.891 80.2217C297.1 79.4757 299.366 78.6897 301.238 77.2597C302.167 76.5547 302.983 75.6767 303.461 74.6227C303.926 73.5657 303.983 72.3457 303.62 71.2427C303.236 70.1437 302.486 69.1837 301.582 68.4057C300.685 67.6137 299.64 66.9837 298.555 66.4397C289.605 62.4997 279.211 61.1587 268.987 62.6507C258.775 64.1277 248.616 68.4327 240.476 75.6057L240.452 75.2237C245.116 78.4117 250.551 80.5147 256.218 81.6417C261.898 82.7577 267.801 82.9717 273.698 82.4757C279.601 82.0067 285.502 80.9087 291.404 79.6037C294.355 78.9517 297.315 78.2487 300.284 77.5437C303.215 76.8307 306.238 75.9477 308.509 73.9327C309.627 72.9327 310.542 71.6757 311.015 70.2567C311.494 68.8487 311.473 67.2657 310.874 65.8947C310.312 64.5027 309.227 63.3697 307.991 62.4867C306.753 61.5887 305.332 60.9487 303.878 60.4347C302.418 59.9147 300.897 59.5987 299.35 59.3457C297.809 59.0767 296.253 58.8797 294.689 58.7427C291.561 58.4667 288.399 58.4457 285.244 58.6787C278.936 59.1407 272.653 60.6257 266.754 63.1367C263.795 64.3587 260.969 65.9347 258.564 68.0607C256.201 70.1567 254.164 72.9257 253.899 76.1267C253.753 78.0507 254.233 80.0127 255.259 81.6397C256.301 83.2697 257.858 84.5177 259.543 85.4677C262.959 87.3507 266.882 88.1657 270.75 88.4087C278.545 88.8987 286.349 88.2397 293.836 86.5057C297.584 85.6517 301.25 84.5227 304.798 83.1397C305.687 82.7977 306.57 82.4437 307.439 82.0597C308.315 81.6887 309.181 81.3107 310.015 80.8707C311.69 80.0067 313.295 79.0037 314.717 77.7907C316.129 76.5817 317.42 75.1857 318.206 73.5207C318.634 72.7057 318.856 71.8097 318.998 70.9157C319.013 70.4617 319.09 70.0087 319.026 69.5557L318.972 68.8767L318.835 68.2107C318.42 66.4367 317.332 64.8817 315.965 63.6787C314.596 62.4667 312.981 61.5427 311.299 60.8167C309.618 60.0737 307.852 59.5607 306.066 59.1247C305.181 58.8757 304.281 58.6967 303.384 58.5117C302.491 58.3087 301.588 58.1567 300.685 58.0227C297.077 57.4507 293.439 57.2037 289.828 57.2627C282.602 57.3687 275.49 58.7467 268.893 61.2157C268.061 61.5077 267.247 61.8377 266.443 62.1917C265.633 62.5307 264.826 62.8727 264.045 63.2687C262.457 64.0087 260.91 64.8047 259.503 65.8077C258.105 66.8077 256.808 67.9757 255.896 69.4007C254.97 70.8087 254.541 72.5277 254.844 74.1667C255.112 75.8137 256.113 77.2537 257.374 78.3347C258.644 79.4217 260.14 80.2357 261.692 80.8657C263.244 81.5127 264.863 81.9497 266.498 82.3407C267.31 82.5527 268.125 82.7467 268.944 82.9137C269.762 83.0837 270.573 83.2817 271.395 83.4177C284.49 85.8907 297.674 85.4187 309.743 82.4687C312.768 81.7627 315.722 80.8687 318.403 79.4427C321.051 78.0417 323.523 76.0777 324.715 73.3747C325.289 72.0377 325.57 70.5647 325.42 69.1257C325.295 67.6817 324.787 66.2957 324.085 65.0437C322.656 62.5197 320.351 60.6467 317.847 59.3337C315.334 58.0027 312.631 57.1357 309.966 56.3087C307.299 55.4817 304.632 54.7707 301.971 54.1967C296.657 53.0387 291.326 52.5187 286.183 52.8997C281.047 53.2757 276.133 54.6867 271.858 56.9807C267.587 59.2667 263.967 62.5057 261.588 66.3797L261.534 66.1527C267.779 69.8887 274.612 71.7517 281.08 72.1857C287.568 72.6407 293.716 71.6007 299.045 69.6517C301.731 68.7427 304.187 67.3917 305.985 65.4787C306.853 64.5147 307.549 63.3927 307.788 62.1707C308.003 60.9577 307.817 59.6797 307.203 58.6597C306.621 57.6167 305.69 56.8457 304.714 56.2587C303.727 55.6767 302.667 55.2837 301.614 54.9867C300.559 54.6877 299.502 54.5187 298.464 54.4017C297.431 54.2577 296.416 54.1947 295.431 54.1437C287.503 53.8167 281.535 55.7447 277.783 57.3117C275.885 58.1007 274.515 58.8537 273.6 59.3587C272.698 59.8897 272.232 60.1497 272.232 60.1497" fill="#182e35" fill-rule="nonzero" opacity="1" stroke="none" vectornator:layerName="path"/>
</g>
</g>
</g>
</g>
</svg>
